# File created by Blade
# Date/Time:  Thu Jan 22 19:34:15 2015
# Frame Rate: 120.000 fps
#------------------------------------------------------
:FULLY-SPECIFIED
:DEGREES
930
root -13.654979 14.735438 -9.110020 24.872145 -30.391815 27.181001
RightUpLeg -128.900348 -23.767692 -6.172409
RightLeg 136.934754 -0.000000 -0.000000
RightFoot -46.141584 -9.095826 7.024701
RightToeBase -1.559703 -0.000000 0.000000
LeftUpLeg -11.799080 37.088381 25.238672
LeftLeg 4.561722 -0.000000 -0.000000
LeftFoot -6.944220 12.286166 -47.173003
LeftToeBase 19.482637 -0.000000 -0.000000
Spine 15.058028 7.090106 28.772587
RightShoulder -2.927154 -2.240966 -11.338282
RightArm 19.548537 40.022985 82.909909
RightForeArm -28.282517 -0.000000 42.641380
RightHand 28.970611 -0.000000 -86.797611
RightHandThumb1 -24.326973 -0.000000 -32.862282
LeftShoulder -29.911920 -14.369900 63.936150
LeftArm 67.419506 -54.392935 -30.100054
LeftForeArm 21.668232 -0.000000 11.639509
LeftHand -0.411498 -0.000000 13.999338
LeftHandThumb1 -26.253704 0.000000 33.147579
Head 11.622871 37.751558 53.002377
931
root -13.655805 14.740929 -9.109343 24.870631 -30.379979 27.186328
RightUpLeg -128.877519 -23.773185 -6.190962
RightLeg 136.924598 -0.000000 -0.000000
RightFoot -46.134125 -9.102837 7.067788
RightToeBase -1.575602 -0.000000 0.000000
LeftUpLeg -11.821169 37.061284 25.221617
LeftLeg 4.575154 -0.000000 -0.000000
LeftFoot -6.958387 12.304547 -47.122078
LeftToeBase 19.411705 -0.000000 -0.000000
Spine 15.054112 7.100332 28.778163
RightShoulder -2.924720 -2.271127 -11.342733
RightArm 19.591806 40.016633 82.890013
RightForeArm -28.221843 -0.000000 42.549987
RightHand 28.960740 0.000000 -86.901506
RightHandThumb1 -24.326973 -0.000000 -32.862282
LeftShoulder -29.904092 -14.370236 63.933337
LeftArm 67.409609 -54.409729 -30.111282
LeftForeArm 21.636299 -0.000000 11.582855
LeftHand -0.462449 -0.000000 13.881543
LeftHandThumb1 -26.253704 0.000000 33.147579
Head 11.610885 37.739594 53.027817
932
root -13.656808 14.745592 -9.108466 24.866988 -30.359843 27.190859
RightUpLeg -128.844735 -23.787773 -6.216143
RightLeg 136.920554 -0.000000 -0.000000
RightFoot -46.136293 -9.087239 7.097555
RightToeBase -1.586432 -0.000000 0.000000
LeftUpLeg -11.840544 37.009704 25.214225
LeftLeg 4.585253 -0.000000 -0.000000
LeftFoot -6.982931 12.337829 -47.038001
LeftToeBase 19.433194 -0.000000 -0.000000
Spine 15.043454 7.109339 28.786817
RightShoulder -2.929102 -2.298430 -11.336088
RightArm 19.647717 40.046144 82.894672
RightForeArm -28.218410 0.000000 42.476025
RightHand 28.944620 -0.000000 -86.923578
RightHandThumb1 -24.326973 -0.000000 -32.862282
LeftShoulder -29.892722 -14.361097 63.931739
LeftArm 67.435835 -54.442499 -30.164750
LeftForeArm 21.611270 -0.000000 11.533108
LeftHand -0.515817 -0.000000 13.750609
LeftHandThumb1 -26.253704 0.000000 33.147579
Head 11.608457 37.714230 53.075569
933
root -13.657711 14.749277 -9.108379 24.864824 -30.328919 27.199632
RightUpLeg -128.814578 -23.806753 -6.248886
RightLeg 136.920993 -0.000000 -0.000000
RightFoot -46.135999 -9.066301 7.149290
RightToeBase -1.527822 -0.000000 0.000000
LeftUpLeg -11.879844 36.935950 25.205188
LeftLeg 4.617035 -0.000000 -0.000000
LeftFoot -7.021797 12.369627 -46.916582
LeftToeBase 19.374296 -0.000000 -0.000000
Spine 15.025190 7.116389 28.790495
RightShoulder -2.945546 -2.345357 -11.322408
RightArm 19.733579 40.057890 82.912726
RightForeArm -28.194262 0.000000 42.387293
RightHand 28.952241 -0.000000 -87.020363
RightHandThumb1 -24.326973 -0.000000 -32.862282
LeftShoulder -29.892391 -14.392956 63.960237
LeftArm 67.406228 -54.433322 -30.171783
LeftForeArm 21.563589 -0.000000 11.516924
LeftHand -0.574769 -0.000000 13.744550
LeftHandThumb1 -26.253704 0.000000 33.147579
Head 11.592844 37.710145 53.129866
934
root -13.658899 14.752213 -9.107795 24.872298 -30.311237 27.208747
RightUpLeg -128.805530 -23.819876 -6.268424
RightLeg 136.918766 -0.000000 -0.000000
RightFoot -46.127277 -9.081907 7.153687
RightToeBase -1.611179 -0.000000 0.000000
LeftUpLeg -11.918236 36.883887 25.186990
LeftLeg 4.642348 -0.000000 -0.000000
LeftFoot -7.057664 12.394635 -46.822757
LeftToeBase 19.350921 -0.000000 -0.000000
Spine 14.999919 7.137911 28.783206
RightShoulder -2.958407 -2.375175 -11.291773
RightArm 19.775710 40.039169 82.874680
RightForeArm -28.059643 -0.000000 42.314311
RightHand 28.938259 -0.000000 -87.174241
RightHandThumb1 -24.326973 -0.000000 -32.862282
LeftShoulder -29.888669 -14.393476 63.970685
LeftArm 67.395736 -54.460906 -30.183706
LeftForeArm 21.499064 0.000000 11.511718
LeftHand -0.620564 -0.000000 13.783208
LeftHandThumb1 -26.253704 0.000000 33.147579
Head 11.567854 37.689962 53.171187
